<?xml version="1.0" encoding="utf-8"?>
<!-- Generator: Adobe Illustrator 23.0.0, SVG Export Plug-In . SVG Version: 6.00 Build 0)  -->
<svg version="1.1" id="Layer_1" xmlns="http://www.w3.org/2000/svg" xmlns:xlink="http://www.w3.org/1999/xlink" x="0px" y="0px"
	 viewBox="0 0 1000 1000" style="enable-background:new 0 0 1000 1000;" xml:space="preserve">
<style type="text/css">
	.st0{fill:#FFFFFF;}
	.st1{fill:#92D3F5;}
	.st2{fill:#D0CFCE;}
	.st3{fill:#3F3F3F;}
	.st4{fill:none;stroke:#000000;stroke-width:2;stroke-linecap:round;stroke-linejoin:round;stroke-miterlimit:10;}
	.st5{fill:#FCEA2B;}
	.st6{fill:none;}
	.st7{fill:none;stroke:#000000;stroke-width:2;stroke-linecap:round;stroke-linejoin:round;}
</style>
<g>
	<g id="color_1_">
		
			<ellipse transform="matrix(0.2885 -0.9575 0.9575 0.2885 -1.686 1036.6807)" class="st0" cx="696.73" cy="519.47" rx="155.09" ry="155.02"/>
		<path class="st1" d="M798.08,641.31c28.39-24.82,55.83-77.96,58.36-115.6c1.73-25.78-20.42-61.53-31.85-83.96
			c-0.53,33.92-14.82,102.05-75.78,151.09c-51.74,41.62-111.12,49.06-142.84,45.9C657.58,672.39,749.45,683.83,798.08,641.31z"/>
		<path class="st2" d="M848.44,386.8c-35.43-40.51-84.49-64.81-138.19-68.44c-53.7-3.59-105.59,13.95-146.12,49.38
			c-83.64,73.17-92.22,200.77-19.11,284.44c73.1,83.67,200.63,92.23,284.32,19.06c40.52-35.44,64.83-84.55,68.43-138.27
			C901.37,479.25,883.87,427.34,848.44,386.8z M801.24,639.09c-42.34,37.04-98.97,47.49-149.33,32.77
			c-28.05-8.19-54.14-24.2-74.76-47.8c-57.63-65.95-50.86-166.52,15.07-224.18c31.94-27.93,72.84-41.76,115.16-38.92
			c42.33,2.85,81,21.98,108.92,53.94c27.92,31.93,41.72,72.84,38.87,115.2C852.34,572.45,833.18,611.15,801.24,639.09z"/>
		<path class="st3" d="M472.14,667.85L339.67,778.68l-72.11,63.07c-9.29,8.14-7.45,44.28,0.67,53.58
			c3.92,4.48,33.7,10.01,33.7,10.01L522.5,721.04L472.14,667.85z"/>
	</g>
	<g id="line_1_">
		
			<ellipse transform="matrix(0.2806 -0.9598 0.9598 0.2806 2.6096 1042.4332)" class="st4" cx="696.72" cy="519.48" rx="203.31" ry="203.21"/>
		
			<ellipse transform="matrix(0.2885 -0.9575 0.9575 0.2885 -1.686 1036.6807)" class="st4" cx="696.73" cy="519.47" rx="155.09" ry="155.02"/>
		<path class="st4" d="M471.54,663.34l47.75,54.64L315.3,896.4c-14.57,12.75-37.08,10.85-50.26-4.24l0,0
			c-13.19-15.09-12.06-37.65,2.51-50.4L471.54,663.34z"/>
	</g>
</g>
<g>
	<g id="color_2_">
		<ellipse class="st5" cx="388.65" cy="421.77" rx="254.35" ry="254.77"/>
	</g>
	<g id="line_2_">
		<ellipse class="st6" cx="388.65" cy="421.77" rx="254.35" ry="254.77"/>
		<path class="st7" d="M497.19,520.68c-32.07,18.12-69.1,28.47-108.54,28.47s-76.48-10.34-108.54-28.47"/>
		<path d="M322.29,366.39c0,18.35-14.87,33.23-33.18,33.23c-18.31,0-33.18-14.88-33.18-33.23c0-18.33,14.87-33.23,33.18-33.23
			C307.42,333.16,322.29,348.05,322.29,366.39"/>
		<path d="M521.35,366.39c0,18.35-14.87,33.23-33.18,33.23S455,384.74,455,366.39c0-18.33,14.87-33.23,33.18-33.23
			S521.35,348.05,521.35,366.39"/>
	</g>
</g>
</svg>
